<svg xmlns="http://www.w3.org/2000/svg" width="512" height="512" viewBox="0 0 512 512" role="img" aria-label="Шпион">
  <defs>
    <linearGradient id="bg" x1="0" y1="0" x2="1" y2="1">
      <stop offset="0%" stop-color="#0f172a"/>
      <stop offset="100%" stop-color="#111827"/>
    </linearGradient>
    <linearGradient id="glass" x1="0" y1="0" x2="0" y2="1">
      <stop offset="0%" stop-color="rgba(255,255,255,0.42)"/>
      <stop offset="100%" stop-color="rgba(255,255,255,0.08)"/>
    </linearGradient>
  </defs>
  <rect width="512" height="512" rx="112" fill="url(#bg)"/>
  <circle cx="256" cy="256" r="154" fill="url(#glass)" stroke="rgba(255,255,255,0.32)" stroke-width="5"/>
  <path d="M256 153c42 0 79 31 88 72l-43 14c-5-20-23-35-45-35-28 0-49 22-49 51 0 38 34 52 63 66 28 13 52 26 52 60 0 45-35 80-81 80-39 0-74-25-84-63l43-13c5 18 21 32 42 32 24 0 40-16 40-35 0-16-13-25-36-36-34-16-77-37-77-93 0-56 40-100 87-100Z" fill="#f59e0b"/>
</svg>
